<svg width="512" height="512" viewBox="0 0 512 512" fill="none" xmlns="http://www.w3.org/2000/svg">
<g clip-path="url(#clip0_145_209)">
<rect width="256" height="512" transform="matrix(-1 0 0 1 512 0)" fill="url(#paint0_linear_145_209)"/>
<path d="M428.591 309C423.876 331.468 415.922 345.196 406.987 353.979C397.979 362.836 387.142 367.487 375.257 370.365C367.241 372.306 359.693 373.292 351.927 374.307C347.488 374.887 342.978 375.476 338.268 376.258C326.489 378.214 313.502 381.453 304.31 390.891C295.88 399.548 286.894 415.175 286.062 434.765C285.213 454.785 292.925 477.727 315.938 500.416L328.5 489.5C308.02 477.826 295.421 456.641 296 443C296.597 428.929 293.555 426.091 299 420.5C307.5 395.988 330.103 397.888 341.545 395.988C344.904 395.43 348.756 394.919 352.882 394.372L352.885 394.372L352.889 394.371C361.379 393.246 371.033 391.966 379.964 389.803C393.953 386.415 407.042 377.747 419.5 365.5C431.971 353.24 442.5 324.5 441.5 302L428.591 309Z" fill="#B37F66"/>
<path d="M0 0H256L362 296.5L291 398L256 512H0V0Z" fill="url(#paint1_linear_145_209)"/>
<path d="M175 503C144.036 442.225 146 317 331.229 329.804C382.5 333.349 381.5 246 307.67 266.328C86.2125 360.192 82 155 186.5 137" stroke="#BD8C74" stroke-width="20"/>
<path d="M137 160L199 127L204.5 175L187 187V215.5L214.5 223L296 205.5L361 201L403 223L425.5 265L430 311.5L412.5 351L379.5 372L287 345L276 324H324L361 311.5L367 283.5L356 265L324 256L256.5 276L194.5 283.5L146.5 265L125.5 243L121 201L137 160Z" fill="white"/>
<path d="M284 330C306.167 346.667 358.5 379.5 413.5 337.5C383.8 377.425 305.897 390.483 304.91 388.678L284 430L297.5 457L305 488.5H167L158 430L175 366L223 335.5L265 323.5L284 330Z" fill="url(#paint2_linear_145_209)"/>
<path d="M275.613 364L273.415 356.308L273.22 356.364L273.027 356.43L275.613 364ZM281.311 370.692C285.559 369.478 288.019 365.051 286.805 360.802C285.592 356.554 281.164 354.094 276.915 355.308L281.311 370.692ZM261.253 513.096C258.298 509.811 253.24 509.543 249.955 512.497C246.67 515.451 246.402 520.51 249.356 523.795L261.253 513.096ZM227.483 494.572C229.764 498.356 234.68 499.574 238.464 497.293C242.248 495.012 243.466 490.095 241.185 486.311L227.483 494.572ZM228.035 456.393C226.878 452.129 222.483 449.61 218.219 450.767C213.955 451.924 211.436 456.319 212.594 460.583L228.035 456.393ZM210.087 422.562C209.389 426.925 212.36 431.027 216.723 431.725C221.086 432.423 225.188 429.452 225.886 425.089L210.087 422.562ZM238.343 397.31C241.134 393.884 240.619 388.845 237.194 386.055C233.769 383.264 228.73 383.779 225.939 387.204L238.343 397.31ZM255.811 363.683C251.88 365.699 250.327 370.521 252.344 374.452C254.36 378.383 259.181 379.936 263.113 377.92L255.811 363.683ZM278.686 371.442C282.934 370.228 285.394 365.801 284.18 361.552C282.967 357.304 278.539 354.844 274.29 356.058L278.686 371.442ZM276.04 355.558C271.792 356.772 269.332 361.199 270.546 365.448C271.76 369.696 276.188 372.156 280.436 370.942L276.04 355.558ZM273.03 525.219C268.826 521.198 264.901 517.152 261.253 513.096L249.356 523.795C253.282 528.16 257.488 532.494 261.97 536.781L273.03 525.219ZM241.185 486.311C235.004 476.058 230.644 466.007 228.035 456.393L212.594 460.583C215.641 471.812 220.641 483.224 227.483 494.572L241.185 486.311ZM225.886 425.089C227.516 414.899 231.642 405.536 238.343 397.31L225.939 387.204C217.442 397.634 212.157 409.617 210.087 422.562L225.886 425.089ZM263.113 377.92C267.69 375.572 272.715 373.444 278.199 371.57L273.027 356.43C266.866 358.534 261.125 360.958 255.811 363.683L263.113 377.92ZM277.811 371.692L278.686 371.442L274.29 356.058L273.415 356.308L277.811 371.692ZM280.436 370.942L281.311 370.692L276.915 355.308L276.04 355.558L280.436 370.942Z" fill="white"/>
<path d="M182.651 120.654C124.996 134.431 98.1586 193.831 114.938 239.64C123.894 264.089 144.949 283.844 178.17 290.908C210.861 297.86 254.831 292.486 310.944 268.801C327.339 264.407 338.23 266.301 344.921 269.949C351.637 273.61 355.406 279.71 356.492 286.379C357.604 293.205 355.828 300.235 351.785 305.235C347.963 309.961 341.626 313.499 331.919 312.828C237.203 306.281 184.574 334.69 161.012 376.391C137.982 417.15 144.901 467.071 161.443 499.54L179.263 490.46C164.841 462.153 159.584 419.575 178.425 386.229C196.735 353.824 240.026 326.524 330.539 332.781C346.467 333.882 359.233 327.831 367.336 317.811C375.218 308.065 378.191 295.192 376.232 283.165C374.249 270.982 367.129 259.277 354.495 252.389C341.92 245.533 325.189 244.132 305.015 249.687L304.377 249.863L303.767 250.121C249.451 273.143 209.656 277.156 182.33 271.346C155.411 265.622 140.16 250.347 133.718 232.761C120.465 196.579 143.176 147.238 193.068 138.941L182.651 120.654Z" fill="#2F2E42"/>
<path d="M209.61 167.982C201.32 170.234 192.239 173.932 184.981 179.38C180.022 183.102 175.358 188.061 172.8 194.497C170.138 201.196 170.123 208.598 173.076 216.176L173.19 216.471L173.323 216.758C178.721 228.384 189.477 233.016 200.481 234.225C211.185 235.401 223.823 233.624 236.543 230.964C246.711 228.838 257.68 225.971 268.577 223.124C271.44 222.376 274.299 221.629 277.137 220.897C290.977 217.328 304.486 214.07 316.896 212.294L317.211 212.249L317.522 212.184C339.496 207.598 367.937 211.432 389.445 225.96C410.187 239.972 425.296 264.431 421.111 303.705C416.396 326.173 408.442 339.901 399.507 348.684C390.499 357.541 379.662 362.192 367.777 365.07C359.761 367.011 352.213 367.997 344.447 369.012C340.009 369.592 335.498 370.181 330.788 370.963C319.009 372.919 307.756 377.562 298.565 387C290.134 395.657 279.414 409.88 278.583 429.47C277.733 449.49 285.445 472.432 308.458 495.121L322.5 480.879C302.952 461.607 297.985 443.959 298.565 430.318C299.162 416.247 307.448 406.544 312.893 400.954C317.213 396.518 322.623 392.593 334.065 390.693C337.425 390.135 341.277 389.624 345.405 389.077L345.409 389.076C353.899 387.951 363.553 386.671 372.484 384.508C386.473 381.12 401.071 375.193 413.528 362.947C425.999 350.687 435.495 332.915 440.793 307.292L440.888 306.83L440.94 306.361C446.085 259.642 427.791 227.728 400.64 209.387C374.276 191.579 340.371 187.076 313.752 192.54C300.243 194.495 285.915 197.979 272.142 201.531C269.143 202.304 266.176 203.079 263.246 203.845C252.416 206.674 242.083 209.373 232.449 211.387C220.089 213.972 210.054 215.156 202.665 214.345C195.796 213.59 192.995 211.401 191.593 208.604C190.484 205.58 190.74 203.508 191.386 201.883C192.158 199.941 193.887 197.702 196.987 195.375C202.989 190.87 211.996 187.639 219.929 186.097L209.61 167.982Z" fill="#2F2E42"/>
<path d="M257.974 231.205C259.348 235.266 263.159 238 267.446 238C271.734 238 275.545 235.266 276.919 231.205L285.936 204.553C290.535 190.958 296.892 178.023 304.844 166.076L305.662 164.847C312.985 153.844 316.893 140.922 316.893 127.704V126.446C316.893 99.1379 294.755 77 267.446 77C240.138 77 218 99.1379 218 126.446V127.704C218 140.922 221.907 153.844 229.231 164.847L237.379 159.424L229.231 164.847L230.049 166.076C238.001 178.023 244.358 190.958 248.957 204.553L257.974 231.205Z" fill="url(#paint3_linear_145_209)" stroke="#2F2E42" stroke-width="20" stroke-linejoin="round"/>
<circle cx="267.447" cy="126.446" r="32.7321" fill="#CA997E"/>
<circle cx="267.447" cy="126.447" r="15.9464" fill="#2F2E42"/>
<path fill-rule="evenodd" clip-rule="evenodd" d="M104 0C46.5624 0 0 46.5624 0 104V408C0 465.438 46.5624 512 104 512H408C465.438 512 512 465.438 512 408V104C512 46.5624 465.438 0 408 0H104ZM408 32H104C64.2355 32 32 64.2355 32 104V408C32 447.764 64.2355 480 104 480H408C447.764 480 480 447.764 480 408V104C480 64.2355 447.764 32 408 32Z" fill="#2F2E42"/>
</g>
<defs>
<linearGradient id="paint0_linear_145_209" x1="128" y1="0" x2="128" y2="512" gradientUnits="userSpaceOnUse">
<stop offset="0.421316" stop-color="white"/>
<stop offset="0.70703" stop-color="#CB997F"/>
<stop offset="1" stop-color="#CB997E"/>
</linearGradient>
<linearGradient id="paint1_linear_145_209" x1="128" y1="0" x2="128" y2="512" gradientUnits="userSpaceOnUse">
<stop offset="0.421316" stop-color="white"/>
<stop offset="0.70703" stop-color="#CB987E"/>
<stop offset="1" stop-color="#CB987E"/>
</linearGradient>
<linearGradient id="paint2_linear_145_209" x1="282.75" y1="323.5" x2="282.75" y2="488.5" gradientUnits="userSpaceOnUse">
<stop stop-color="#CB997F"/>
<stop offset="1" stop-color="#031B31"/>
</linearGradient>
<linearGradient id="paint3_linear_145_209" x1="267.446" y1="87" x2="267.446" y2="228" gradientUnits="userSpaceOnUse">
<stop stop-color="#F9E0A6"/>
<stop offset="0.25" stop-color="#FDB586"/>
<stop offset="0.303559" stop-color="#FFB8B9"/>
<stop offset="1" stop-color="#CA997E"/>
</linearGradient>
<clipPath id="clip0_145_209">
<rect width="512" height="512" rx="104" fill="white"/>
</clipPath>
</defs>
</svg>
